#!OML:ASF X:\für Bonn\!DataBase\2005_08_10_Bjorn_Final\c3d\bjorn.ASF
:FULLY-SPECIFIED
:DEGREES
65
root 0.108474 19.2925 2.63714 -173.67 2.45938 180.182
lowerback -19.2556 0.558973 -1.41167
upperback 5.36778 1.27208 -0.679077
thorax 17.1466 0.482028 0.446757
lowerneck 16.0239 -15.6569 1.65104
upperneck 16.3703 -18.5244 4.52801
head 3.19019 -8.06735 1.62416
rclavicle 1.3418e-014 2.38542e-015
rhumerus -1232.54 -121.354 1263.44
rradius 24.1948
rwrist 30.8991
rhand -27.0537 6.40217
rfingers 7.12502
rthumb -0.472 -23.5771
lclavicle 1.3418e-014 2.38542e-015
lhumerus -685.063 56.6504 -719.981
lradius 24.6167
lwrist -53.9791
lhand -29.4215 11.209
lfingers 7.12502
lthumb -2.75879 41.1709
rfemur -15.1065 -11.1178 13.4932
rtibia 28.35
rfoot -13.3628 16.8221
rtoes -17.9998
lfemur -11.7167 3.85291 -16.4632
ltibia 26.0331
lfoot -14.2938 -6.88362
ltoes 0.0819203
66
root 0.109586 19.2948 2.59627 -173.536 2.45776 180.225
lowerback -19.5484 0.511919 -1.4383
upperback 5.53222 1.20574 -0.548593
thorax 17.5342 0.435156 0.596175
lowerneck 16.6924 -15.7356 1.35851
upperneck 16.1239 -18.6097 4.7692
head 3.06208 -8.13828 1.79918
rclavicle 3.47873e-015 1.19271e-015
rhumerus -1236.85 -119.19 1267.08
rradius 23.2905
rwrist 31.0345
rhand -27.0972 5.16533
rfingers 7.12502
rthumb -0.513938 -24.8138
lclavicle 3.47873e-015 1.19271e-015
lhumerus -690.521 58.0746 -723.615
lradius 24.9334
lwrist -52.0225
lhand -29.3161 11.6053
lfingers 7.12502
lthumb -2.657 41.5685
rfemur -15.1464 -11.2425 13.5157
rtibia 28.3924
rfoot -13.2165 17.057
rtoes -17.5453
lfemur -11.6477 3.88396 -16.4132
ltibia 25.8828
lfoot -14.3285 -6.94486
ltoes 0.155339
67
root 0.1113 19.2967 2.55531 -173.415 2.44893 180.291
lowerback -19.8216 0.475903 -1.43133
upperback 5.68321 1.14551 -0.425931
thorax 17.896 0.39523 0.719663
lowerneck 17.5556 -15.7898 1.09611
upperneck 15.69 -18.6474 5.06494
head 2.84003 -8.19487 2.00881
rclavicle 2.38542e-015 1.66979e-014
rhumerus -1242.49 -117.859 1272
rradius 22.447
rwrist 30.2986
rhand -27.0035 4.23056
rfingers 7.12502
rthumb -0.423477 -25.7488
lclavicle 2.38542e-015 1.66979e-014
lhumerus -696.858 58.7781 -728.042
lradius 25.2752
lwrist -49.1808
lhand -29.2085 12.2454
lfingers 7.12502
lthumb -2.55307 42.2098
rfemur -15.1693 -11.3511 13.5642
rtibia 28.4343
rfoot -13.1145 17.247
rtoes -17.4184
lfemur -11.5719 4.00644 -16.3242
ltibia 25.7378
lfoot -14.3139 -7.14496
ltoes 0.657225
68
root 0.112468 19.2966 2.51628 -173.292 2.43207 180.357
lowerback -20.118 0.430164 -1.42691
upperback 5.86006 1.07358 -0.298418
thorax 18.3082 0.34896 0.847424
lowerneck 18.4798 -15.8302 0.890573
upperneck 15.1122 -18.6626 5.31349
head 2.5468 -8.25046 2.20647
rclavicle 8.69683e-015 8.94531e-015
rhumerus -1248.85 -117.103 1277.54
rradius 21.6674
rwrist 28.9509
rhand -26.8227 3.42318
rfingers 7.12502
rthumb -0.248838 -26.5564
lclavicle 8.69683e-015 8.94531e-015
lhumerus -703.489 59.0537 -732.628
lradius 25.5618
lwrist -46.1053
lhand -29.2117 13.0329
lfingers 7.12502
lthumb -2.55617 42.9974
rfemur -15.2061 -11.5086 13.6079
rtibia 28.4716
rfoot -12.8961 17.5278
rtoes -16.7266
lfemur -11.5033 4.08938 -16.2443
ltibia 25.6007
lfoot -14.3205 -7.28397
ltoes 0.950465
69
root 0.113267 19.2984 2.47901 -173.173 2.3886 180.416
lowerback -20.3824 0.382938 -1.42571
upperback 6.01248 0.998649 -0.172145
thorax 18.6719 0.301324 0.974392
lowerneck 19.5586 -15.8629 0.641365
upperneck 14.44 -18.6641 5.58635
head 2.20594 -8.30633 2.43619
rclavicle -4.87022e-015 3.97569e-016
rhumerus -1256.16 -117.958 1283.87
rradius 20.9168
rwrist 26.9819
rhand -26.9645 2.25138
rfingers 7.12502
rthumb -0.385775 -27.728
lclavicle -4.87022e-015 3.97569e-016
lhumerus -710.566 58.1208 -737.504
lradius 25.8369
lwrist -41.6067
lhand -29.5389 13.7375
lfingers 7.12502
lthumb -2.87213 43.6979
rfemur -15.2258 -11.5987 13.6446
rtibia 28.5047
rfoot -12.763 17.687
rtoes -16.438
lfemur -11.4573 4.27116 -16.1717
ltibia 25.4737
lfoot -14.3175 -7.49585
ltoes 0.837973
